HIERARCHY
ROOT pelvis
{
  OFFSET 0 100 0
  CHANNELS 6 Xposition Yposition Zposition Zrotation Xrotation Yrotation
  JOINT pelvis_right_femur
  {
    OFFSET -10.78128 -3.44521 -0.5502486
    CHANNELS 3 Zrotation Xrotation Yrotation
    JOINT right_femur_tibia
    {
      OFFSET -0.8047443 -44.0398 -0.1307829
      CHANNELS 3 Zrotation Xrotation Yrotation
      JOINT right_tibia_foot
      {
        OFFSET 3.006224 -47.83518 -5
        CHANNELS 3 Zrotation Xrotation Yrotation
        End Site
        {
          OFFSET 0 -5 15
        }
      }
    }
  }
  JOINT pelvis_left_femur
  {
    OFFSET 10.78128 -3.44521 -0.5502486
    CHANNELS 3 Zrotation Xrotation Yrotation
    JOINT left_femur_tibia
    {
      OFFSET 0.8047443 -44.0398 -0.1307829
      CHANNELS 3 Zrotation Xrotation Yrotation
      JOINT left_tibia_foot
      {
        OFFSET -4.370144 -48.10324 -4.275266
        CHANNELS 3 Zrotation Xrotation Yrotation
        End Site
        {
          OFFSET 0 -5 15
        }
      }
    }
  }
  JOINT pelvis_spine1
  {
    OFFSET 0 6.468898 -3.129235
    CHANNELS 3 Zrotation Xrotation Yrotation
    JOINT spine1
    {
      OFFSET 0 23.15396 4.99043
      CHANNELS 3 Zrotation Xrotation Yrotation
      JOINT spine2
      {
        OFFSET 0 20.79997 -5.064912
        CHANNELS 3 Zrotation Xrotation Yrotation
        JOINT neck
        {
          OFFSET 0 14.38658 9.616178
          CHANNELS 3 Zrotation Xrotation Yrotation
          End Site
          {
            OFFSET 0 20 0
          }
        }
      }
      JOINT right_manubrium
      {
        OFFSET -5.722621 16.35077 3.967754
        CHANNELS 3 Zrotation Xrotation Yrotation
        JOINT right_clavicle
        {
          OFFSET -13.16364 1.694482 -4.693211
          CHANNELS 3 Zrotation Xrotation Yrotation
          JOINT right_humerus
          {
            OFFSET -28.5034 -0.3100689 -2.792744
            CHANNELS 3 Zrotation Xrotation Yrotation
            JOINT right_radius
            {
              OFFSET -25.15693 0.02248979 -1.271978
              CHANNELS 3 Zrotation Xrotation Yrotation
              End Site
              {
                OFFSET -15 0 0
              }
            }
          }
        }
      }
      JOINT left_manubrium
      {
        OFFSET 5.722621 16.35077 3.967754
        CHANNELS 3 Zrotation Xrotation Yrotation
        JOINT left_clavicle
        {
          OFFSET 13.16364 1.694482 -4.693211
          CHANNELS 3 Zrotation Xrotation Yrotation
          JOINT left_humerus
          {
            OFFSET 29.39168 -1.063119 -2.237045
            CHANNELS 3 Zrotation Xrotation Yrotation
            JOINT left_radius
            {
              OFFSET 24.59957 -0.9528479 0.9047498
              CHANNELS 3 Zrotation Xrotation Yrotation
              End Site
              {
                OFFSET 15 -0 -0
              }
            }
          }
        }
      }
    }
  }
}
MOTION
Frames: 7
Frame Time: 0.0416666666667
0 103.5113 0 1.296887 -0.4390501 -0.1259609 3.43545 -17.14142 10.25807 -0 38.09867 -0 -5.149302 -16.97009 -3.003521 -7.607604 10.3269 -23.42571 -0 3.997983 -0 14.94519 -13.56601 30.44201 -4.566417 -4.129687 4.93771 2.877063 10.43971 -7.738551 1.373424 21.75123 6.7414 3.000448 -24.81255 9.784883 6.864857 -19.98078 11.91588 85.32071 38.39029 -18.11345 -0 0 15.78146 -6.589433 8.188492 4.159732 6.175475 -19.46983 -1.300252 -91.71063 21.3064 19.48143 0 0 -14.81263 15.44495 14.21444 -4.390764
0.3388664 104.2387 1.623776 1.049963 -0.04464134 -0.2252334 3.883305 -18.69916 10.11022 -0 37.0416 -0 -5.131157 -16.08804 -2.730874 -7.451906 10.12946 -22.9218 -0 4.215969 -0 14.87472 -13.91123 29.90541 -4.320625 -3.889989 4.970971 2.914741 10.52258 -7.756998 1.405021 21.51715 6.75547 3.019566 -25.12401 9.855822 6.821484 -20.04903 11.95444 85.32445 38.28664 -18.12452 -0 0 15.85202 -6.65957 8.350236 4.189381 6.291474 -19.66444 -1.327127 -91.59938 20.77525 19.55276 0 0 -15.1689 15.9961 13.89725 -4.844915
0.6873135 104.8932 3.501164 0.6272476 0.660216 -0.2495809 4.755076 -21.5423 9.895963 -0 34.51513 -0 -4.975802 -14.74175 -2.362502 -7.152979 10.00911 -21.97375 -0 4.993445 -0 14.39556 -14.80554 28.81168 -3.885162 -3.457433 5.036169 2.992143 10.53239 -7.783594 1.512813 21.14148 6.70647 2.997554 -25.58725 9.968218 6.657843 -20.06178 11.93989 85.38473 37.8839 -18.27095 -0 0 15.92134 -6.640105 8.582727 4.126361 6.478561 -19.95637 -1.352381 -91.44219 20.29872 19.62563 0 0 -16.0407 16.41427 13.48384 -5.037055
1.024697 105.4817 5.547527 0.3827667 1.167711 -0.2490438 5.492544 -23.283 10.17959 -0 32.35565 -0 -4.535923 -14.65148 -2.367875 -6.968202 10.1417 -21.48323 -0 6.05243 -0 13.89267 -15.54125 28.24387 -3.644814 -3.227846 5.169787 3.090922 10.35189 -7.796219 1.686775 20.89935 6.541435 2.865824 -25.83715 10.09443 6.524824 -19.96342 11.81995 85.35522 37.54697 -18.41487 -0 0 16.10777 -6.135007 8.646854 3.766567 6.552471 -19.92784 -1.22473 -91.50986 20.50737 19.74831 0 0 -16.60453 16.15032 13.29985 -4.593308
1.35878 106.0012 7.838014 0.1171607 1.650207 -0.1792578 6.007639 -25.25275 9.722491 -0 30.04551 -0 -4.575921 -13.34413 -2.089426 -6.75871 10.28425 -20.71311 -0 6.897804 -0 12.98676 -16.47496 27.05403 -3.349601 -2.91579 5.136464 3.123766 10.26026 -7.821844 1.727975 20.72336 6.538191 2.905452 -26.07151 10.07658 6.343609 -19.84855 11.76645 85.55927 37.12904 -18.76044 -0 0 15.86619 -6.314524 8.779992 3.825209 6.655021 -20.21584 -1.319767 -91.38633 20.73699 19.72854 0 0 -17.61052 15.73092 13.29761 -3.908486
1.688508 106.4156 10.47028 -0.1528531 2.047847 -0.001063299 6.249633 -27.45924 8.486287 -0 27.28808 -0 -5.055697 -10.97817 -1.59405 -6.515015 10.5796 -19.61349 -0 7.58682 -0 11.61059 -17.63131 25.22942 -3.007018 -2.526401 4.924278 3.085643 10.20884 -7.850455 1.670506 20.64976 6.643351 3.066562 -26.19544 9.912281 6.033107 -19.65239 11.73216 86.03926 36.46868 -19.32357 -0 0 15.13325 -7.154513 8.943692 4.261406 6.804584 -20.80837 -1.633316 -90.9854 21.01517 19.36766 0 0 -19.12181 15.12051 13.4729 -2.99253
2.00155 106.6599 13.59932 -0.3978163 2.303694 0.3132002 6.15557 -29.90662 6.398158 -0 23.53097 -0 -5.891524 -7.750002 -0.9640053 -6.236371 11.23065 -18.06757 -0 8.350131 -0 9.631912 -19.03981 22.69211 -2.629535 -2.076188 4.530681 2.972327 10.12244 -7.872314 1.563594 20.71765 6.775705 3.275954 -26.07735 9.591806 5.474008 -19.26534 11.64521 86.86483 35.34328 -20.1485 -0 0 13.79554 -8.624615 9.093878 5.008374 7.021245 -21.69632 -2.153296 -90.15986 21.37277 18.3639 0 0 -21.27935 14.24844 13.79673 -1.835331
